<svg data-v-423bf9ae="" xmlns="http://www.w3.org/2000/svg" viewBox="0 0 271.92118797887156 60" class="font"><!----><!----><!----><g data-v-423bf9ae="" id="b969e3ca-b478-4af5-a867-0b0c40881fc3" fill="white" transform="matrix(4.222378595280017,0,0,4.222378595280017,-0.5489100823258184,-5.911329098257653)"><path d="M12.42 1.40L12.42 1.40Q12.70 1.40 12.84 1.57L12.84 1.57L12.84 1.57Q12.98 1.74 12.98 2.02L12.98 2.02L12.98 2.02Q12.98 2.23 12.92 2.41L12.92 2.41L10.11 11.75L10.11 11.75Q10.01 12.01 9.82 12.17L9.82 12.17L9.82 12.17Q9.63 12.33 9.38 12.33L9.38 12.33L9.38 12.33Q9.13 12.33 8.93 12.17L8.93 12.17L8.93 12.17Q8.74 12.01 8.65 11.76L8.65 11.76L6.57 3.70L4.45 11.75L4.45 11.75Q4.35 12.01 4.17 12.17L4.17 12.17L4.17 12.17Q3.98 12.33 3.72 12.33L3.72 12.33L3.72 12.33Q3.47 12.33 3.28 12.18L3.28 12.18L3.28 12.18Q3.08 12.03 3.00 11.76L3.00 11.76L0.18 2.41L0.18 2.41Q0.13 2.23 0.13 2.03L0.13 2.03L0.13 2.03Q0.13 1.74 0.29 1.57L0.29 1.57L0.29 1.57Q0.45 1.40 0.73 1.40L0.73 1.40L0.73 1.40Q0.98 1.40 1.17 1.54L1.17 1.54L1.17 1.54Q1.36 1.68 1.44 1.95L1.44 1.95L3.74 9.93L5.85 2.03L5.85 2.03Q5.91 1.82 6.10 1.68L6.10 1.68L6.10 1.68Q6.30 1.54 6.55 1.54L6.55 1.54L6.55 1.54Q6.79 1.54 6.99 1.67L6.99 1.67L6.99 1.67Q7.18 1.79 7.24 2.02L7.24 2.02L9.38 9.98L11.70 1.88L11.70 1.88Q11.77 1.62 11.95 1.51L11.95 1.51L11.95 1.51Q12.12 1.40 12.42 1.40L12.42 1.40ZM21.27 8.39L21.27 8.39Q21.27 8.65 21.08 8.83L21.08 8.83L21.08 8.83Q20.90 9.00 20.62 9.00L20.62 9.00L15.30 9.00L15.30 9.00Q15.46 9.98 16.19 10.58L16.19 10.58L16.19 10.58Q16.93 11.19 17.99 11.19L17.99 11.19L17.99 11.19Q18.41 11.19 18.87 11.03L18.87 11.03L18.87 11.03Q19.32 10.88 19.61 10.65L19.61 10.65L19.61 10.65Q19.81 10.50 20.08 10.50L20.08 10.50L20.08 10.50Q20.34 10.50 20.50 10.64L20.50 10.64L20.50 10.64Q20.75 10.85 20.75 11.12L20.75 11.12L20.75 11.12Q20.75 11.37 20.52 11.54L20.52 11.54L20.52 11.54Q20.05 11.91 19.34 12.15L19.34 12.15L19.34 12.15Q18.63 12.39 17.99 12.39L17.99 12.39L17.99 12.39Q16.84 12.39 15.93 11.89L15.93 11.89L15.93 11.89Q15.02 11.40 14.51 10.51L14.51 10.51L14.51 10.51Q14 9.63 14 8.51L14 8.51L14 8.51Q14 7.39 14.48 6.50L14.48 6.50L14.48 6.50Q14.97 5.61 15.83 5.12L15.83 5.12L15.83 5.12Q16.69 4.62 17.78 4.62L17.78 4.62L17.78 4.62Q18.86 4.62 19.64 5.10L19.64 5.10L19.64 5.10Q20.43 5.57 20.85 6.43L20.85 6.43L20.85 6.43Q21.27 7.28 21.27 8.39L21.27 8.39ZM17.78 5.82L17.78 5.82Q16.76 5.82 16.12 6.38L16.12 6.38L16.12 6.38Q15.48 6.94 15.32 7.88L15.32 7.88L19.98 7.88L19.98 7.88Q19.85 6.94 19.28 6.38L19.28 6.38L19.28 6.38Q18.70 5.82 17.78 5.82L17.78 5.82ZM22.81 2.10L22.81 2.10Q22.81 1.79 23.00 1.60L23.00 1.60L23.00 1.60Q23.20 1.40 23.51 1.40L23.51 1.40L23.51 1.40Q23.81 1.40 24.01 1.60L24.01 1.60L24.01 1.60Q24.21 1.79 24.21 2.10L24.21 2.10L24.21 9.74L24.21 9.74Q24.21 10.26 24.40 10.60L24.40 10.60L24.40 10.60Q24.60 10.93 24.91 10.93L24.91 10.93L25.26 10.93L25.26 10.93Q25.54 10.93 25.71 11.13L25.71 11.13L25.71 11.13Q25.89 11.33 25.89 11.63L25.89 11.63L25.89 11.63Q25.89 11.94 25.62 12.14L25.62 12.14L25.62 12.14Q25.35 12.33 24.93 12.33L24.93 12.33L24.91 12.33L24.91 12.33Q24.30 12.33 23.82 12.00L23.82 12.00L23.82 12.00Q23.34 11.68 23.07 11.08L23.07 11.08L23.07 11.08Q22.81 10.49 22.81 9.74L22.81 9.74L22.81 2.10ZM31.14 4.62L31.14 4.62Q32.21 4.62 33.10 5.13L33.10 5.13L33.10 5.13Q33.99 5.64 34.50 6.53L34.50 6.53L34.50 6.53Q35 7.42 35 8.51L35 8.51L35 8.51Q35 9.60 34.53 10.49L34.53 10.49L34.53 10.49Q34.06 11.38 33.24 11.89L33.24 11.89L33.24 11.89Q32.42 12.39 31.42 12.39L31.42 12.39L31.42 12.39Q30.60 12.39 29.90 12.05L29.90 12.05L29.90 12.05Q29.20 11.72 28.71 11.12L28.71 11.12L28.71 14.90L28.71 14.90Q28.71 15.22 28.52 15.41L28.52 15.41L28.52 15.41Q28.32 15.61 28 15.61L28 15.61L28 15.61Q27.69 15.61 27.49 15.41L27.49 15.41L27.49 15.41Q27.29 15.22 27.29 14.90L27.29 14.90L27.29 8.51L27.29 8.51Q27.29 7.42 27.80 6.53L27.80 6.53L27.80 6.53Q28.31 5.64 29.18 5.13L29.18 5.13L29.18 5.13Q30.06 4.62 31.14 4.62L31.14 4.62ZM31.14 11.13L31.14 11.13Q31.84 11.13 32.40 10.79L32.40 10.79L32.40 10.79Q32.97 10.44 33.30 9.85L33.30 9.85L33.30 9.85Q33.63 9.25 33.63 8.51L33.63 8.51L33.63 8.51Q33.63 7.77 33.30 7.17L33.30 7.17L33.30 7.17Q32.97 6.57 32.40 6.22L32.40 6.22L32.40 6.22Q31.84 5.88 31.14 5.88L31.14 5.88L31.14 5.88Q30.44 5.88 29.87 6.22L29.87 6.22L29.87 6.22Q29.30 6.57 28.98 7.17L28.98 7.17L28.98 7.17Q28.66 7.77 28.66 8.51L28.66 8.51L28.66 8.51Q28.66 9.25 28.98 9.85L28.98 9.85L28.98 9.85Q29.30 10.44 29.87 10.79L29.87 10.79L29.87 10.79Q30.44 11.13 31.14 11.13L31.14 11.13ZM45.44 11.31L45.44 11.31Q45.51 11.49 45.51 11.62L45.51 11.62L45.51 11.62Q45.51 11.91 45.30 12.12L45.30 12.12L45.30 12.12Q45.09 12.33 44.79 12.33L44.79 12.33L44.79 12.33Q44.58 12.33 44.39 12.21L44.39 12.21L44.39 12.21Q44.20 12.10 44.11 11.89L44.11 11.89L43.33 9.93L38.30 9.93L37.51 11.89L37.51 11.89Q37.41 12.10 37.23 12.21L37.23 12.21L37.23 12.21Q37.04 12.33 36.83 12.33L36.83 12.33L36.83 12.33Q36.53 12.33 36.32 12.12L36.32 12.12L36.32 12.12Q36.12 11.90 36.12 11.61L36.12 11.61L36.12 11.61Q36.12 11.47 36.19 11.28L36.19 11.28L40.12 1.89L40.12 1.89Q40.33 1.40 40.81 1.40L40.81 1.40L40.81 1.40Q41.31 1.40 41.50 1.89L41.50 1.89L45.44 11.31ZM38.79 8.72L42.84 8.72L40.84 3.74L38.79 8.72ZM50.82 4.62L50.82 4.62Q51.90 4.62 52.79 5.13L52.79 5.13L52.79 5.13Q53.68 5.64 54.18 6.53L54.18 6.53L54.18 6.53Q54.68 7.42 54.68 8.51L54.68 8.51L54.68 8.51Q54.68 9.60 54.22 10.49L54.22 10.49L54.22 10.49Q53.75 11.38 52.93 11.89L52.93 11.89L52.93 11.89Q52.11 12.39 51.10 12.39L51.10 12.39L51.10 12.39Q50.29 12.39 49.59 12.05L49.59 12.05L49.59 12.05Q48.89 11.72 48.40 11.12L48.40 11.12L48.40 14.90L48.40 14.90Q48.40 15.22 48.20 15.41L48.20 15.41L48.20 15.41Q48.01 15.61 47.68 15.61L47.68 15.61L47.68 15.61Q47.38 15.61 47.17 15.41L47.17 15.41L47.17 15.41Q46.97 15.22 46.97 14.90L46.97 14.90L46.97 8.51L46.97 8.51Q46.97 7.42 47.48 6.53L47.48 6.53L47.48 6.53Q47.99 5.64 48.87 5.13L48.87 5.13L48.87 5.13Q49.74 4.62 50.82 4.62L50.82 4.62ZM50.82 11.13L50.82 11.13Q51.52 11.13 52.09 10.79L52.09 10.79L52.09 10.79Q52.65 10.44 52.98 9.85L52.98 9.85L52.98 9.85Q53.31 9.25 53.31 8.51L53.31 8.51L53.31 8.51Q53.31 7.77 52.98 7.17L52.98 7.17L52.98 7.17Q52.65 6.57 52.09 6.22L52.09 6.22L52.09 6.22Q51.52 5.88 50.82 5.88L50.82 5.88L50.82 5.88Q50.12 5.88 49.55 6.22L49.55 6.22L49.55 6.22Q48.99 6.57 48.66 7.17L48.66 7.17L48.66 7.17Q48.34 7.77 48.34 8.51L48.34 8.51L48.34 8.51Q48.34 9.25 48.66 9.85L48.66 9.85L48.66 9.85Q48.99 10.44 49.55 10.79L49.55 10.79L49.55 10.79Q50.12 11.13 50.82 11.13L50.82 11.13ZM60.66 4.62L60.66 4.62Q61.74 4.62 62.63 5.13L62.63 5.13L62.63 5.13Q63.52 5.64 64.02 6.53L64.02 6.53L64.02 6.53Q64.53 7.42 64.53 8.51L64.53 8.51L64.53 8.51Q64.53 9.60 64.06 10.49L64.06 10.49L64.06 10.49Q63.59 11.38 62.77 11.89L62.77 11.89L62.77 11.89Q61.95 12.39 60.94 12.39L60.94 12.39L60.94 12.39Q60.13 12.39 59.43 12.05L59.43 12.05L59.43 12.05Q58.73 11.72 58.24 11.12L58.24 11.12L58.24 14.90L58.24 14.90Q58.24 15.22 58.04 15.41L58.04 15.41L58.04 15.41Q57.85 15.61 57.53 15.61L57.53 15.61L57.53 15.61Q57.22 15.61 57.02 15.41L57.02 15.41L57.02 15.41Q56.81 15.22 56.81 14.90L56.81 14.90L56.81 8.51L56.81 8.51Q56.81 7.42 57.32 6.53L57.32 6.53L57.32 6.53Q57.83 5.64 58.71 5.13L58.71 5.13L58.71 5.13Q59.58 4.62 60.66 4.62L60.66 4.62ZM60.66 11.13L60.66 11.13Q61.36 11.13 61.93 10.79L61.93 10.79L61.93 10.79Q62.50 10.44 62.83 9.85L62.83 9.85L62.83 9.85Q63.15 9.25 63.15 8.51L63.15 8.51L63.15 8.51Q63.15 7.77 62.83 7.17L62.83 7.17L62.83 7.17Q62.50 6.57 61.93 6.22L61.93 6.22L61.93 6.22Q61.36 5.88 60.66 5.88L60.66 5.88L60.66 5.88Q59.96 5.88 59.39 6.22L59.39 6.22L59.39 6.22Q58.83 6.57 58.51 7.17L58.51 7.17L58.51 7.17Q58.18 7.77 58.18 8.51L58.18 8.51L58.18 8.51Q58.18 9.25 58.51 9.85L58.51 9.85L58.51 9.85Q58.83 10.44 59.39 10.79L59.39 10.79L59.39 10.79Q59.96 11.13 60.66 11.13L60.66 11.13Z"></path></g><!----><!----></svg>